<?xml version='1.0' encoding='UTF-8'?>
<svg x="0px" y="0px" viewBox="0 0 32 32" version="1.1" xmlns="http://www.w3.org/2000/svg" xmlns:xlink="http://www.w3.org/1999/xlink" xml:space="preserve" id="Layer_1" style="enable-background:new 0 0 32 32">
  <style type="text/css">
	.Blue{fill:#1177D7;}
	.Green{fill:#039C23;}
	.Yellow{fill:#FFB115;}
	.Black{fill:#727272;}
	.White{fill:#FFFFFF;}
	.Red{fill:#D11C1C;}
	.st0{opacity:0.75;}
</style>
  <g id="Idea">
    <path d="M13,24h6c0.6,0,1-0.5,1-1s-0.4-1-1-1h-6c-0.6,0-1,0.5-1,1S12.4,24,13,24z" class="Black" />
    <path d="M19,26h-6c-0.6,0-1,0.5-1,1s0.4,1,1,1h1c0,1.1,0.9,2,2,2s2-0.9,2-2h1c0.6,0,1-0.5,1-1S19.6,26,19,26z" class="Black" />
    <path d="M16,2c-4.4,0-8,3.6-8,8c0,5,4,6,4,10c2,0,6,0,8,0c0-4,4-5,4-10C24,5.6,20.4,2,16,2z" class="Yellow" />
  </g>
</svg>