<?xml version='1.0' encoding='UTF-8'?>
<svg x="0px" y="0px" viewBox="0 0 32 32" version="1.1" xmlns="http://www.w3.org/2000/svg" xmlns:xlink="http://www.w3.org/1999/xlink" xml:space="preserve" id="Layer_1" style="enable-background:new 0 0 32 32">
  <style type="text/css">
	.Yellow{fill:#FFB115;}
	.Red{fill:#D11C1C;}
	.Black{fill:#727272;}
	.Blue{fill:#1177D7;}
	.White{fill:#FFFFFF;}
	.Green{fill:#039C23;}
	.st0{opacity:0.75;}
	.st1{opacity:0.5;}
	.st2{opacity:0.25;}
	.st3{fill:#FFB115;}
</style>
  <g id="Cross-Data-SourceFiltering">
    <path d="M2,2h24v4L16,16v10l-4,4V16L2,6V2z M24,30c-3.3,0-6-0.9-6-2v2c0,1.1,2.7,2,6,2s6-0.9,6-2v-2   C30,29.1,27.3,30,24,30z M24,26c-3.3,0-6-0.9-6-2v2c0,1.1,2.7,2,6,2s6-0.9,6-2v-2C30,25.1,27.3,26,24,26z M24,16c-3.3,0-6,0.9-6,2   v4c0,1.1,2.7,2,6,2s6-0.9,6-2v-4C30,16.9,27.3,16,24,16z" class="Yellow" />
  </g>
</svg>